<?xml version="1.0" encoding="UTF-8"?>
<svg id="Layer_2" data-name="Layer 2" xmlns="http://www.w3.org/2000/svg" xmlns:xlink="http://www.w3.org/1999/xlink" viewBox="0 0 2077.36 1819.22">
  <defs>
    <style>
      .cls-1 {
        fill: url(#radial-gradient-5);
      }

      .cls-2 {
        fill: url(#radial-gradient-4);
      }

      .cls-3 {
        fill: url(#radial-gradient-3);
      }

      .cls-4 {
        fill: url(#radial-gradient-2);
      }

      .cls-5 {
        fill: #fd1172;
      }

      .cls-6 {
        fill: #fd346e;
      }

      .cls-7 {
        fill: #aa1a64;
      }

      .cls-8 {
        fill: #1c1621;
      }

      .cls-9 {
        fill: url(#radial-gradient);
      }

      .cls-10 {
        fill: #191721;
      }

      .cls-11 {
        fill: #908c99;
      }

      .cls-12 {
        fill: #2b2b30;
      }

      .cls-13 {
        fill: #b2abb8;
      }

      .cls-14 {
        fill: #b8b0bd;
      }

      .cls-15 {
        fill: #18171d;
      }

      .cls-16 {
        fill: #9a9aa5;
      }

      .cls-17 {
        fill: #181620;
      }

      .cls-18 {
        fill: #515564;
      }

      .cls-19 {
        fill: #1d1e25;
      }

      .cls-20 {
        fill: #343242;
      }

      .cls-21 {
        fill: #353444;
      }

      .cls-22 {
        fill: #3f2e47;
      }

      .cls-23 {
        fill: #15161e;
      }

      .cls-24 {
        fill: #b8b8c1;
      }

      .cls-25 {
        fill: #c10b6d;
      }

      .cls-26 {
        fill: #c8126a;
      }

      .cls-27 {
        fill: #15151c;
      }

      .cls-28 {
        fill: #18151e;
      }
    </style>
    <radialGradient id="radial-gradient" cx="1792.34" cy="647.85" fx="1792.34" fy="647.85" r="1033.02" gradientUnits="userSpaceOnUse">
      <stop offset="0" stop-color="#aa1a64"/>
      <stop offset="1" stop-color="#fe426c"/>
    </radialGradient>
    <radialGradient id="radial-gradient-2" cx="1321.4" cy="233.15" fx="1321.4" fy="233.15" r="494.39" gradientUnits="userSpaceOnUse">
      <stop offset="0" stop-color="#af0f69"/>
      <stop offset="1" stop-color="#da0a72"/>
    </radialGradient>
    <radialGradient id="radial-gradient-3" cx="1633.35" cy="370.39" fx="1633.35" fy="370.39" r="1.96" xlink:href="#radial-gradient-2"/>
    <radialGradient id="radial-gradient-4" cx="1604.84" cy="357.11" fx="1604.84" fy="357.11" r="1.96" xlink:href="#radial-gradient-2"/>
    <radialGradient id="radial-gradient-5" cx="893.17" cy="250.55" fx="893.17" fy="250.55" r="566.4" gradientUnits="userSpaceOnUse">
      <stop offset="0" stop-color="#b01067"/>
      <stop offset="1" stop-color="#fd346e"/>
    </radialGradient>
  </defs>
  <path class="cls-13" d="M397.44,577.05c.03.66-.02,1.33,0,2,.03,1.33.02,2.67,0,4-.08,6.09-4.39,24.97-6,31.99,4.37-30.09,2.2-59.06-8-87.96,7.89-1.27,14.66-5.38,21.99-8-2.2,6.06-18.79,7.54-19.97,11.07-.77,2.29,11.57,38.24,11.98,46.9Z"/>
  <path class="cls-9" d="M1710.83,659.01c-25.07,22.88-47.15,48.94-69.97,73.97-30.18,33.1-59.86,66.78-89.96,99.95-35.79,39.45-72.65,78.03-107.95,117.94-27.25,30.81-101.47,105.47-117.94,135.94-.26.48.22,1.37,0,2,0,0,0,0,0,0l-263.88,311.85,99.48,39.66,5.56-1.51c103.68-136.72,222.55-261.82,326.75-397.98h0c28.51-31.62,55.23-64.84,81.96-97.95,50.69-57.92,101.85-115.79,149.93-175.92l38.09-43.02c-19.43-19.17-40.23-39.81-52.09-64.93ZM1513.03,1008.18c-.7.43-1.41.93-2.14,1.5.72-.57,1.44-1.07,2.14-1.5ZM1508.68,1011.57c-.52.48-1.04.97-1.56,1.49.52-.52,1.04-1.01,1.56-1.49ZM1507.1,1013.08c-1.07,1.07-2.13,2.22-3.18,3.39,1.04-1.18,2.11-2.32,3.18-3.39ZM1502.04,1018.67c-.11.13-.22.26-.32.39.11-.13.22-.26.32-.39ZM1474.93,1015.81h0c-1.11-6.2-7.05-4.95-12.53-5.01,5.47.06,11.41-1.19,12.53,5.01ZM1456.41,952.29c.71-1.18,1.46-2.26,2.26-3.23-.8.97-1.56,2.05-2.26,3.23ZM1461.65,1010.78c-.47-.02-.94-.05-1.4-.1.46.05.93.08,1.4.1ZM1453.57,958.18c-.56,1.43-1.06,2.93-1.52,4.48.46-1.55.96-3.05,1.52-4.48ZM1451.41,965.03c-.24.93-.45,1.88-.65,2.84.2-.96.42-1.91.65-2.84ZM1462.62,945.55l-2.64-4.65h0l2.64,4.65ZM1324,1094.8l67.99-76.95-67.99,76.95h0ZM1456.96,1024.82c.07.06.15.11.22.16-.07-.06-.15-.1-.22-.16h0ZM1458.71,1025.98c.62.33,1.26.59,1.93.8-.67-.21-1.31-.48-1.93-.8ZM1484.74,1022.8c.07,0,.13.02.17.04.06.04.09.21.11.48-.02-.26-.05-.44-.11-.48-.04-.02-.09-.04-.17-.04ZM1491.89,1030.92c-.51.08-.99.11-1.43.11.44,0,.91-.04,1.43-.11.38-.06,1.38-1.24,2.8-3.03-1.42,1.8-2.43,2.98-2.8,3.03ZM1499.93,1021.23c-.81,1-1.57,1.98-2.3,2.9.73-.93,1.49-1.9,2.3-2.9ZM1496.63,1025.42c-.38.49-.74.96-1.09,1.4.35-.44.71-.91,1.09-1.4Z"/>
  <path class="cls-15" d="M903.2,269.19c58.51,74.36,162.71,105.82,244.88,41.97,13.01-10.11,58.85-71.99,30.99-23.98-62.79,79.46-166.08,85.07-243.9,23-9.11-7.27-17.46-21.3-23.98-27l-8-13.99Z"/>
  <path class="cls-13" d="M1478.93,415.13c.6.21,1.43-.23,2,0l8,4c18.1,8.52,36.12,18.86,53.97,27.99-23.52-10.71-48.35-19.42-69.97-33.98,2.13.56,3.95,1.3,6,2Z"/>
  <path class="cls-13" d="M1652.85,501.09c-31.29-13.84-62.34-28.82-91.96-45.98,30.99,14.34,62.71,28.25,91.96,45.98Z"/>
  <path class="cls-25" d="M1488.93,419.12l-8-4c4.56,1.81,5.37,2.76,8,4Z"/>
  <path class="cls-13" d="M1558.9,455.11c-3.53-1.63-5.67-3.85-6-4l6,4Z"/>
  <path class="cls-13" d="M1550.9,451.11c-3.57-1.64-5.67-3.85-6-4l6,4Z"/>
  <path class="cls-13" d="M419.43,513.08c-3.28,5.2-7.74,4.49-11.99,6,3-4.18,7.8-4.34,11.99-6Z"/>
  <path class="cls-13" d="M429.43,509.08c11.82-7.58,25.2-14.24,37.98-19.99-10.51,9.29-25.27,14.53-37.98,19.99Z"/>
  <path class="cls-13" d="M427.43,509.08c-1.17.49-3.12,2.86-6,4l6-4Z"/>
  <g>
    <path class="cls-4" d="M1688.84,397.13h0c-1.16-.26-3.36.4-4,0l-.25-.25h0c-.56-.71-1.41-2.51-3.74-3.74-.84-.44-3.14.44-4,0-.27-.14-1.38-2.67-4-4h0c-.86-.44-3.13.44-4,0-.27-.14-1.36-2.69-4-4-.88-.44-3.12.44-4,0l-.09-.09c-.38-.48-1.45-2.74-3.91-3.91-.9-.43-3.08.42-4,0l-.08-.08c-.36-.45-1.44-2.78-3.92-3.92-.92-.42-3.07.42-4,0l-.84-.84s0,0,0,0l-.91-.91.91.91c-.36-.46-.74-.97-1.16-1.16h0c-1.36-.61-2.64-1.4-4-2l-1.67-.84-1.36-.68s0,0,0,0l-4.97-2.49c-.57-.24-1.43.23-2,0-3.45-1.41-7.79-2.07-11.51-3.82,3.71,1.75,8.05,2.41,11.51,3.82-5.86-3.37-11.95-7-17.99-10h0c-.87-.43-3.09.43-4,0l-4-4c-.91-.43-3.09.43-4,0l-.08-.08c-.36-.45-1.44-2.75-3.92-3.92-1.22-.58-4.78.58-6,0l-.08-.08c-.36-.45-1.46-2.75-3.92-3.92-.9-.43-3.1.43-4,0l-.08-.08c-.36-.45-1.47-2.74-3.92-3.92-.89-.43-3.1.43-4,0l-.08-.08c-.36-.45-1.47-2.74-3.92-3.92-.89-.43-3.1.43-4,0l-.08-.08c-.36-.45-1.47-2.75-3.92-3.92h0c-.9-.43-3.1.43-4,0l-.85-.85c-.35-.45-.73-.95-1.15-1.15h0c-3.35-1.61-6.84-2.54-10-4h0s-.05-.05-.05-.05l-.16-.16c-.33-.42-.86-1.37-1.79-1.79-.55-.25-1.45.25-2,0l-1.37-.91s0,0,0,0h0c-1.19-.92-2.72-2.23-4.62-3.08h0c-5.98-2.68-12-5.33-17.99-8l-.13-.13c-.29-.37-.83-1.41-1.86-1.86h0c-.94-.42-3.06.42-4,0l-.08-.08c-.36-.46-1.46-2.83-3.92-3.92h0c-11.98-5.31-23.98-10.81-35.98-15.99h-2c-.73-2.08-2.09-3.07-4-4-.89-.43-3.15.44-4,0l-.84-.84h0c-.36-.45-.73-.95-1.16-1.16-1.34-.66-2.66-1.35-4-2-9.88-4.77-19.82-9.86-29.99-13.99-1.87-.76-4.04-1.3-6-2-3.21-2.05-6.6-4.3-10-6-65.8-32.87-133.82-61.67-197.91-97.95,4.17,35.36-2.54,81.58-21.99,111.95,1.59.08,2.85,1.56,4,2,65.98,25.3,143.41,66.22,207.9,97.95h0c10.82,5.33,21.27,12.57,31.98,17.99l29.99,13.99c.6.2,1.38-.18,2,0,2.74.78,4.96.44,6,4,.61.18,1.38-.16,2,0,2.13.56,3.95,1.3,6,2,.6.21,1.43-.23,2,0,4.56,1.81,5.37,2.76,8,4,18.1,8.52,36.12,18.86,53.97,27.99.55.25,1.45-.25,2,0l6,4c.55.25,1.45-.25,2,0l6,4c.55.25,1.45-.25,2,0,30.99,14.34,62.71,28.25,91.96,45.98.56.25,1.44-.25,2,0,17.18,7.56,33.98,16.38,51.98,21.99,10.47-26.9,42.91-69.34,67.97-83.96-28.42-14.26-56.69-29.48-85.96-41.98ZM1375.82,269.18c-.65-.61-1.36-1.26-2.1-1.93.74.68,1.44,1.32,2.1,1.93ZM1332.45,335.86c3.92-.8,7.02-1.87,9.47-3.13-2.46,1.26-5.55,2.33-9.47,3.13ZM1372.18,284.46c-1.46,2.41-.97,6.43,4.74,14.62-5.71-8.19-6.2-12.21-4.74-14.62ZM1380.23,273.66c-.4-.5-1-1.16-1.77-1.93.77.77,1.37,1.43,1.77,1.93ZM1380.16,278.38c.64-.95.93-2.15.61-3.83.32,1.67.03,2.88-.61,3.83ZM1462.95,375.16c-.57,1.82-.22,2.95.59,3.7-.81-.74-1.16-1.87-.59-3.7ZM1481.82,371.01c.62-.21,1.27-.42,1.98-.62-.71.2-1.36.41-1.98.62ZM1518.01,325.32c.02-.75.3-1.48.91-2.14-.61.66-.9,1.38-.91,2.14ZM1520.48,323.18c.6.19,1.31.52,2.08.93-.77-.41-1.49-.74-2.08-.93ZM1552.55,339.61c1.43.11,4.95,1.34,9.96,3.39-5.01-2.05-8.53-3.29-9.96-3.39ZM1577.18,349.37c2.77,1.25,5.7,2.58,8.74,3.98-3.04-1.4-5.97-2.73-8.74-3.98Z"/>
    <path class="cls-3" d="M1630.86,369.15l4.97,2.48c-1.61-.86-3.22-1.76-4.97-2.48Z"/>
    <path class="cls-2" d="M1602.88,355.15l3.92,3.92c-.36-.45-1.46-2.76-3.92-3.92Z"/>
  </g>
  <path class="cls-13" d="M1462.94,409.13c-10.66-3.55-20.06-8.97-29.99-13.99l29.99,13.99Z"/>
  <path class="cls-6" d="M589.35,429.12c-18.73,11-38.61,20.18-57.97,29.99-1.27.18-2.82-.26-4,0,20.19-10.82,40.47-21.86,61.97-29.99Z"/>
  <path class="cls-13" d="M531.38,459.11c-20.7,10.49-40.77,20.43-61.97,29.99v-2c.59-.21,1.4.2,2,0,2.36-.81,4.45-1.98,6-4,.52-.27,1.45.26,2,0l6-4c.54-.26,1.46.26,2,0l6-4c.56-.25,1.44.25,2,0l6-4c.55-.25,1.45.25,2,0,7.92-3.62,14.6-8.45,21.99-11.99.47-.22,1.3.15,2,0,1.18-.26,2.73.18,4,0Z"/>
  <path class="cls-6" d="M605.34,421.12c-3.02,5.55-8.81,6.13-13.99,8,2.95-4.62,9.21-6.16,13.99-8Z"/>
  <path class="cls-6" d="M635.33,407.13c-8.72,6.04-18.18,10.06-27.99,13.99,7.69-7.73,18.55-9.84,27.99-13.99Z"/>
  <path class="cls-6" d="M503.39,471.1l21.99-11.99c-7.39,3.55-14.07,8.37-21.99,11.99Z"/>
  <path class="cls-6" d="M477.4,483.09c-1.54,2.02-3.63,3.19-6,4,.81-3.89,4.14-3.01,6-4Z"/>
  <path class="cls-6" d="M485.4,479.1l-6,4c.45-.22,2.58-2.36,6-4Z"/>
  <path class="cls-6" d="M495.4,475.1c1.24-.56,3.31-2.77,6-4l-6,4Z"/>
  <path class="cls-6" d="M487.4,479.1c1.42-.68,3.19-2.75,6-4l-6,4Z"/>
  <path class="cls-1" d="M903.2,269.19c-20.71-26.32-25.71-65.24-21.99-97.95-40.89,19.46-81.37,39.89-121.94,59.97-24.55,12.15-51,20.54-73.97,35.98-28.3,8.95-53.58,25.01-79.96,37.98l-55.97,25.99c-.57.23-1.42-.22-2,0-4.74,1.82-10.18,4.56-13.99,8-.58.23-1.43-.24-2,0-72.89,30.15-142.25,70.98-213.9,103.95,26.95,17.47,55.3,53.73,65.97,83.96,7.89-1.27,14.66-5.38,21.99-8,.59-.21,1.41.21,2,0,3-4.18,7.8-4.34,11.99-6,.58-.23,1.42.23,2,0l6-4c.57-.24,1.44.24,2,0,11.82-7.58,25.2-14.24,37.98-19.99.55-.25,1.45.25,2,0v-2c.59-.21,1.4.2,2,0,.81-3.89,4.14-3.01,6-4,.52-.27,1.45.26,2,0,.45-.22,2.58-2.36,6-4,.54-.26,1.46.26,2,0,1.42-.68,3.19-2.75,6-4,.56-.25,1.44.25,2,0,1.24-.56,3.31-2.77,6-4,.55-.25,1.45.25,2,0l21.99-11.99c.47-.22,1.3.15,2,0,20.19-10.82,40.47-21.86,61.97-29.99.58-.22,1.41.21,2,0,2.95-4.62,9.21-6.16,13.99-8,.58-.22,1.43.23,2,0,7.69-7.73,18.55-9.84,27.99-13.99,30.22-13.31,58.62-29.07,87.96-43.98,20.85-10.6,41.59-17.5,61.97-29.99h0c1.24-.23,3.02.34,4,0l2-2c.56-.24,1.45.25,2,0l2-2c.54-.26,1.46.27,2,0l2-2c.54-.26,1.45.25,2,0,.63-.6,1.24-1.62,2-2,5.28-2.63,10.72-5.44,15.99-8h0c2.68-1.3,5.4-2.76,8-4,24.44-11.62,49.62-22.11,73.97-33.98,2.58-3.94,7.97,2.23,10,4l-8-13.99ZM458.42,490.93c3.19-.29,7.97-2.65,10.46-3.63-2.49.99-7.26,3.35-10.46,3.63ZM555.42,338.16c-.03,1.63.75,2.32,1.85,2.33-1.1,0-1.89-.69-1.85-2.33ZM572.29,392.79c1.55.26,2.87.32,2.95.49-.08-.17-1.4-.22-2.95-.49ZM674.38,303.09c-.56-4.35,1.22-6.87,2.06-9.46-.84,2.59-2.62,5.11-2.06,9.46ZM675.83,287.85c.51.93.88,1.81.98,2.61-.11-.8-.47-1.68-.98-2.61ZM685.44,328.95c.47.83,1.31,1.51,2.39,2.1-1.08-.6-1.92-1.28-2.39-2.1ZM705.31,355.14c.15.16.37.23.67.24-.3,0-.52-.07-.67-.24ZM718.81,351.42c.64.02,1.23.14,1.77.35-.55-.22-1.14-.34-1.77-.35ZM797.51,322.75c.61-.49,1.22-.98,1.84-1.46-.62.48-1.24.96-1.84,1.46ZM800.83,320.18c.62-.46,1.25-.91,1.87-1.34-.62.43-1.25.88-1.87,1.34ZM804.02,317.97c5.03-3.23,9.95-5.04,13.28-2.82-3.33-2.22-8.25-.41-13.28,2.82Z"/>
  <g>
    <path class="cls-13" d="M397.33,575.87c.01.35.04.74.11,1.18-.02-.35-.06-.75-.11-1.18Z"/>
    <path class="cls-13" d="M1654.85,501.09c-.56-.25-1.44.25-2,0-31.29-13.84-62.34-28.82-91.96-45.98-.55-.25-1.45.25-2,0-3.53-1.63-5.67-3.85-6-4-.55-.25-1.45.25-2,0-3.57-1.64-5.67-3.85-6-4-.55-.25-1.45.25-2,0-23.52-10.71-48.35-19.42-69.97-33.98-.62-.16-1.39.18-2,0-2.72-.79-4.97-.42-6-4-.62-.18-1.4.2-2,0-10.66-3.55-20.06-8.97-29.99-13.99-10.72-5.42-21.16-12.66-31.98-17.99-64.49-31.74-141.93-72.66-207.9-97.95-1.15-.44-2.41-1.92-4-2-1.19,1.85-7.92,7.36-10,10-62.79,79.46-166.08,85.07-243.9,23-9.11-7.27-17.46-21.3-23.98-27-2.02-1.77-7.42-7.94-10-4-24.34,11.87-49.52,22.36-73.97,33.98-2.6,1.24-5.31,2.7-8,4-5.28,2.56-10.71,5.36-15.99,8-.59.65-1.22,1.64-2,2-.55.25-1.46-.26-2,0-.49.24-1.07,1.54-2,2-.54.27-1.46-.26-2,0-.5.24-1.07,1.57-2,2-.55.25-1.44-.24-2,0-.24.1-.74,1.56-2,2-.97.34-2.76-.23-4,0-20.38,12.49-41.13,19.39-61.97,29.99-29.33,14.91-57.74,30.67-87.96,43.98-8.73,6.04-18.18,10.06-27.99,13.99-.57.23-1.42-.22-2,0-3.02,5.55-8.81,6.13-13.99,8-.59.21-1.42-.22-2,0-18.73,11-38.61,20.18-57.97,29.99-20.7,10.49-40.77,20.43-61.97,29.99-.55.25-1.44-.25-2,0-10.51,9.29-25.27,14.53-37.98,19.99-.56.24-1.43-.24-2,0-1.17.49-3.12,2.86-6,4-.58.23-1.42-.23-2,0-3.28,5.2-7.74,4.49-11.99,6-.59.21-1.41-.21-2,0-2.2,6.06-18.79,7.54-19.97,11.07-.74,2.2,10.6,35.41,11.87,45.73-.22-6.29,7.48.7.11,3.18.03,1.33.02,2.67,0,4l8-4,482.77-234.15c11.11.07,34.68,23.25,45.22,29,72.03,39.3,141.67,43.72,214.66,3.23,13.83-7.67,40.23-33.04,53.45-31.52,14.47,1.66,93.62,41.66,113.19,50.8,116.14,54.22,230.29,113.66,346.12,168.64,11.28,5.35,23.14,9.72,33.98,15.99-.33-2.55-.73-6.6,2-8,0-.67-.02-1.33,0-2l6-35.98c.51-1.79,1.37-4.17,2-6,.66-1.91,1.3-4.2,2-6-17.99-5.61-34.79-14.43-51.98-21.99ZM394.18,540.12c.17,1.59.41,3.3.7,5.1-.29-1.8-.53-3.51-.7-5.1ZM1085.72,354.25c29.05-7.26,57.2-22.79,82.62-46.81-25.42,24.02-53.57,39.55-82.62,46.81Z"/>
  </g>
  <path class="cls-13" d="M1470.94,413.13c-2.72-.79-4.97-.42-6-4,2.74.78,4.96.44,6,4Z"/>
  <path class="cls-26" d="M789.26,333.16l2-2c-.24.1-.74,1.56-2,2Z"/>
  <path class="cls-26" d="M793.26,331.17l2-2c-.5.24-1.07,1.57-2,2Z"/>
  <path class="cls-26" d="M797.25,329.17l2-2c-.49.24-1.07,1.54-2,2Z"/>
  <path class="cls-26" d="M801.25,327.17c.63-.6,1.24-1.62,2-2-.59.65-1.22,1.64-2,2Z"/>
  <g>
    <path class="cls-5" d="M759.27,806.94c30.67-15.58,132.46,5.79,169.92-7v-311.85l3-3h223.9c.35,0,5,4.64,5,5v312.85h168.92c15.2,0,13.29,17.94,14.99,25.99l-296.87,317.89-293.84-321.92c-4.11-10.44-1.37-10.13,4.98-17.96Z"/>
    <path class="cls-14" d="M759.27,806.94c-6.35,7.83-9.08,7.52-4.98,17.96l293.84,321.92,296.87-317.89c4.29,20.24-1.61,41.71-15.39,58.82l-285.25,307.01-277.44-306.54c-5.7-9.03-8.55-21.39-9.5-32.79-.5-6.06-25.87-34.41,1.86-48.49Z"/>
  </g>
  <path class="cls-20" d="M1814.78,1456.64c-4.04-1.34-7.98-2.55-11.99-4-.6-.22-1.45.24-2,0-2.54-4.91-4.79-6.41-10-8-1.02-.31-2.72.19-4,0-5.47-.81-6.62-1.94-10,4-.59.22-1.42-.22-2,0,1.91-1.47-.15-3.87,0-4,4.29-3.78,7.35-9.29,14.51-7.72,2.82.57,20.85,17.11,25.47,19.71Z"/>
  <g>
    <path class="cls-21" d="M1211.06,165.24c4.17,35.36-2.54,81.58-21.99,111.95-1.19,1.85-7.92,7.36-10,10,27.85-48.01-17.98,13.87-30.99,23.98-82.16,63.85-186.37,32.39-244.88-41.97-20.71-26.32-25.71-65.24-21.99-97.95,21.83-191.86,308.25-189.19,329.85-6ZM1048.13,80.46c-139.68-3.02-141.94,203.17-12.04,212.78,153.47,11.36,157.51-209.64,12.04-212.78Z"/>
    <g>
      <path class="cls-20" d="M2054.66,1372.68c29.97-91.07-9.33-164.85-90.11-208.87l-1.88-439.7c174.9-134.46,1.79-395.69-187.88-284.99-25.05,14.62-57.5,57.06-67.97,83.96-.7,1.8-1.34,4.09-2,6-.63,1.83-1.48,4.21-2,6l-6,35.98c-.02.67,0,1.33,0,2-.18,21.15,3.86,45.17,8,65.97.98,3.34,2.76,6.71,4,10l2,2c.7,1.7-.72,6.48,0,8,11.85,25.12,32.66,45.76,52.09,64.93l-38.09,43.02c-48.07,60.13-99.24,118-149.93,175.92-26.73,33.12-53.45,66.33-81.96,97.95-104.2,136.16-223.08,261.27-326.75,397.98l-5.56,1.51-99.48-39.66-201.42-61.46c-27.82-90.89-101.94-149.02-199.32-138.52l-6.21-3.79-320.47-479.36c27.64-32.33,47.96-59.92,57.73-102.5,4.37-30.09,2.2-59.06-8-87.96-10.67-30.23-39.02-66.49-65.97-83.96-185.45-120.24-367.01,138.21-195.98,276.94v591.74c4.14,62.05,100.79,90.7,152,116.86,35.76,18.27,72.16,35.7,107.95,53.97l-117.94-63.95c15.12,6.53,32.55,11.96,47.71,19.24,177.21,85.15,350.05,182.54,526.02,270.6.87.44,3.12-.44,4,0,1.19.59,1.73,1.87,2,2,2.05,1.02,4.44,1.23,6,2,.89.44,1.46,1.73,2,2,1.34.66,2.66,1.34,4,2,1.34.66,2.67,1.34,4,2,1.33.66,2.66,1.34,4,2,3.22,1.6,5.33,3.67,6,4,.53.27,1.47-.27,2,0,.95.47,1.52,1.76,2,2,.53.27,1.47-.27,2,0,.93.46,1.51,1.76,2,2,.54.26,1.46-.26,2,0,.93.46,1.51,1.76,2,2,.54.26,1.46-.26,2,0,.93.44,1.52,1.78,2,2,.55.25,1.45-.26,2,0,5.61,2.62,12.82,2.86,15.99,10,.9.43,3.11-.43,4,0,1.19.58,1.72,1.86,2,2,.53.27,1.47-.27,2,0,.93.47,1.5,1.74,2,2,.53.27,1.47-.27,2,0,.93.47,1.5,1.74,2,2,2.65,1.35,5.34,2.65,8,4,.78.4,1.37,1.68,2,2,.53.27,1.47-.27,2,0,.93.47,1.5,1.75,2,2,.53.27,1.47-.27,2,0,.93.46,1.5,1.75,2,2,1.54.77,3.95.98,6,2,.81.4,1.39,1.7,2,2,4.26,2.11,9.48,3.9,13.99,6,.78.36,1.38,1.72,2,2,.93.42,3.07-.42,4,0,2.71,1.21,3.74,3.88,4,4,.56.25,1.44-.24,2,0,.94.41,1.55,1.81,2,2,2.44,1.04,5.53.99,8,2,.89.36,1.51,1.8,2,2,.57.23,1.42-.23,2,0,.92.37,1.55,1.83,2,2,.58.22,1.42-.22,2,0,.91.34,1.56,1.84,2,2,.59.21,1.4-.21,2,0,.9.31,1.57,1.86,2,2,.6.2,1.39-.19,2,0,.88.27,1.59,1.88,2,2,1.61.45,4.3-.42,6,0,2.81.7,5.64,3.93,6,4,1.86.34,4.1-.27,6,0,1.19.17,1.86,1.98,2,2,1.95.23,4.03-.16,6,0,8.89.7,20.99.51,29.99,0,2.64-.15,5.39.27,8,0,.14-.01.77-1.83,2-2,3.13-.42,7.04.57,10,0,.37-.07,1.16-1.81,2-2,.63-.15,1.38.16,2,0,.17-.04.82-1.66,2-2,1.12-.33,2.94.35,4,0,.54-.18,1.23-1.73,2-2,1.97-.69,4.08-1.27,6-2,.49-.19,1.13-1.66,2-2,1.94-.76,4-1.17,6-2,.5-.21,1.11-1.62,2-2,3.29-1.4,6.66-2.53,10-4,.59-.26,1.2-1.64,2-2,4.65-2.07,9.37-3.79,13.99-6,.49-.23,1.07-1.55,2-2,.54-.26,1.46.26,2,0,.26-.13.8-1.41,2-2,.88-.43,3.12.43,4,0,.26-.13,1.45-2.74,4-4,.54-.26,1.46.26,2,0,.49-.24,1.07-1.54,2-2,.54-.26,1.46.26,2,0,.53-.26,1.11-1.56,2-2,1.56-.77,3.94-1.01,6-2,.25-.12.8-1.42,2-2,.89-.43,3.1.43,4,0,.62-.3,1.22-1.63,2-2,4.54-2.16,9.69-3.88,13.99-6,1.52-4.85,4.74-4.45,8-6,1.58-.75,3.89-.98,6-2,.49-.24,1.07-1.55,2-2,.54-.26,1.46.26,2,0,.49-.24,1.07-1.54,2-2,.54-.26,1.46.26,2,0,.5-.24,1.07-1.55,2-2,.54-.26,1.46.26,2,0,.49-.24,1.07-1.55,2-2,.54-.26,1.46.26,2,0,.49-.24,1.07-1.54,2-2,.54-.26,1.46.26,2,0,.5-.24,1.07-1.55,2-2,.54-.26,1.46.26,2,0,.53-.26,1.11-1.56,2-2,4.35-2.14,9.42-3.73,13.99-6,.26-.13.8-1.41,2-2,.88-.43,3.12.43,4,0,.28-.14,1.47-2.74,4-4,1.54-.76,3.93-.97,6-2,.26-.13.8-1.4,2-2,.88-.44,3.12.44,4,0,.63-.31,1.22-1.61,2-2,2.67-1.33,5.33-2.67,8-4,.5-.25,1.07-1.54,2-2,.53-.27,1.47.27,2,0,.5-.25,1.07-1.54,2-2,.53-.27,1.47.27,2,0,.5-.25,1.07-1.54,2-2,.53-.27,1.47.27,2,0,.53-.26,1.11-1.55,2-2,4.31-2.15,9.44-3.72,13.99-6,.53-.26,1.11-1.55,2-2,4.23-2.11,9.42-3.72,13.99-6,.54-.27,1.11-1.56,2-2,1.54-.77,3.95-.98,6-2,.26-.13.8-1.4,2-2,.87-.44,3.12.44,4,0,.63-.32,1.22-1.61,2-2,2.67-1.33,5.33-2.67,8-4,.54-.27,1.11-1.56,2-2,1.54-.77,3.95-.98,6-2,.5-.25,1.07-1.54,2-2,.53-.27,1.47.27,2,0,.53-.26,1.11-1.55,2-2,2.77-1.38,6.57-2.29,10-4,.53-.26,1.1-1.55,2-2,5.73-2.86,12.14-5.08,17.99-8,.54-.27,1.11-1.56,2-2,1.54-.77,3.95-.98,6-2,.54-.27,1.11-1.56,2-2,1.54-.77,3.95-.98,6-2,.57-.28,1.15-1.58,2-2,4.45-2.22,9.53-3.77,13.99-6,.54-.27,1.11-1.56,2-2,1.54-.77,3.95-.98,6-2,.26-.13.8-1.4,2-2,.87-.44,3.12.44,4,0,.28-.14,1.47-2.74,4-4,3.25-1.62,8.74-2.38,11.99-4,.63-.31,1.22-1.61,2-2,3.99-1.99,8-4.01,11.99-6,.53-.26,1.11-1.55,2-2,2.78-1.38,6.57-2.29,10-4,.5-.25,1.07-1.54,2-2,.53-.27,1.47.27,2,0,.54-.27,1.11-1.56,2-2,1.55-.77,3.95-.98,6-2,.53-.26,1.1-1.55,2-2,2.16-1.08,5.83-.92,8-2,.48-.24,1.06-1.53,2-2,.53-.27,1.47.27,2,0,.28-.14,1.47-2.74,4-4,1.54-.76,3.93-.97,6-2,.26-.13.8-1.4,2-2,.87-.44,3.12.44,4,0,.25-.13,1.37-2.69,4-4,.88-.44,3.12.44,4,0,.25-.13,1.37-2.69,4-4,.87-.44,3.12.44,4,0,.63-.31,1.22-1.61,2-2,4.56-2.27,9.68-3.85,13.99-6,.63-.31,1.22-1.61,2-2,4.56-2.27,9.68-3.85,13.99-6,.5-.25,1.07-1.54,2-2,.53-.27,1.46.27,2,0,.61-.3,1.19-1.6,2-2,2.05-1.02,4.45-1.23,6-2,.5-.25,1.07-1.54,2-2,.53-.27,1.46.27,2,0,.48-.24,1.06-1.53,2-2,.53-.27,1.46.27,2,0,.28-.14,1.47-2.74,4-4,1.54-.76,3.93-.97,6-2,.26-.13.8-1.4,2-2,.88-.44,3.12.44,4,0,.63-.31,1.22-1.61,2-2,2.67-1.33,5.33-2.67,8-4,.26-.13.8-1.4,2-2,.88-.44,3.12.44,4,0,.5-.25,1.07-1.54,2-2,.53-.27,1.46.27,2,0,.5-.25,1.07-1.54,2-2,.53-.27,1.46.27,2,0,.61-.3,1.19-1.6,2-2,2.05-1.02,4.45-1.23,6-2,.48-.24,1.05-1.53,2-2,.53-.27,1.46.27,2,0,.63-.31,2.69-2.36,6-4,.53-.27,1.46.27,2,0,.5-.25,1.07-1.54,2-2,.53-.27,1.46.27,2,0,.5-.25,1.07-1.54,2-2,.53-.27,1.46.27,2,0,.5-.25,1.07-1.54,2-2,.53-.27,1.46.27,2,0,.5-.25,1.07-1.54,2-2,.53-.27,1.46.27,2,0,.61-.3,1.19-1.6,2-2,3.06-1.52,6.6-1.3,8-2,.28-.14,1.47-2.74,4-4,1.54-.76,3.93-.98,6-2,.53-.26,1.11-1.56,2-2,1.55-.77,3.94-.98,6-2,.54-.27,1.11-1.56,2-2,1.55-.77,3.94-.98,6-2,.57-.28,1.15-1.58,2-2,4.46-2.21,9.52-3.78,13.99-6,.54-.27,1.11-1.56,2-2,3.26-1.62,8.74-2.38,11.99-4,.27-.13,1.46-2.73,4-4,.53-.27,1.47.27,2,0,.54-.27,1.11-1.56,2-2,1.55-.77,3.94-.98,6-2,.54-.27,1.11-1.56,2-2,1.55-.77,3.94-.98,6-2,.54-.27,1.11-1.56,2-2,1.54-.77,3.95-.98,6-2,.32-.16.85-1.43,2-2,.54-.26,1.46.26,2,0,1.32-.65,2.65-1.34,4-2,2.05-1.01,4.46-1.24,6-2,.25-.13,1.4-2.67,4-4,.86-.44,3.15.44,4,0,.42-.22,1.19-2.87,4-4,.9-.36,2.78.24,4,0,4.29-3.78,7.35-9.29,14.51-7.72,2.82.57,20.85,17.11,25.47,19.71-4.04-1.34-7.98-2.55-11.99-4,71.03,53.26,184.65,31.97,231.89-41.98.3-.47-.3-1.52,0-2,3.76-6.09,7.1-12.68,11.99-17.99.27-.53-.27-1.47,0-2l4-6c.24-.56-.24-1.43,0-2l4-8ZM1994.69,1370.68c-.39.77-1.61,1.32-2,2-1.42,2.51-2.42,5.7-4,8-2.31,3.35-4.56,4.24-6,6-4.33,5.3-7.14,7.59-11.99,11.99-1.99,1.8-3,3.62-6,6-.41.32-1.58-.32-2,0-.91.69-1.64,2.42-4,4-.46.31-1.53-.3-2,0-.57.36-1.09,1.46-2,2-.49.29-1.5-.29-2,0-.54.31-1.08,1.52-2,2-.52.27-1.46-.26-2,0-.5.24-1.08,1.6-2,2-.56.24-1.42-.23-2,0-.29.12-.85,1.6-2,2-.59.21-1.39-.19-2,0-.37.12-1.6,1.35-4,2-.62.17-1.37-.16-2,0-.14.03-.76,1.73-2,2-1.75.38-4.14-.3-6,0-.22.04-.96,1.65-4,2-.66.07-1.34-.06-2,0-34.58,2.99-57.51-1.02-85.96-21.99-2.59-1.91-5.66-3.82-8-6-.69-.64-1.35-1.31-2-2-.81-.85-1.15-2.94-2-4-3.79-1.68-5.68-4.83-8-8-.31-.43.3-1.51,0-2-.33-.54-2.58-1.35-4-4-.28-.52.27-1.48,0-2-2.28-2.34-4.65-4.99-6-8-.57-1.26.56-4.67,0-6-.16-.37-2.44-1.13-4-6-.19-.6.17-1.38,0-2-.06-.22-1.4-1.3-2-4-.14-.63.12-1.35,0-2-.09-.49-1.55-2.38-2-6-25.04-203.22,287.02-142.51,197.91,31.99ZM1850.37,469.71c179.85-21.29,155.12,265.65-11.88,222.55-116.43-30.04-108.93-208.25,11.88-222.55ZM215.18,467.62c146.5-7.82,161.04,214.56,23.27,227.31-150.92,13.97-172-219.37-23.27-227.31ZM569.06,1241.3c-46.77,40.54-68.85,100.34-51.69,161.35-5.19.96-3.56-.94-4.91-3.97-2.81-6.31-4.38-14.85-5.06-24.21l-2.01,28.19c.75.9,4.41,5.67,4,5.97-100.27-48.71-200.88-100.52-297.41-157.35l-.54-495.42c1.95-10.88,8.91-11.65,18.09-8.9,3.96,1.19,6.26,1.72,8,6l323.85,475.78c2.81,3.41,9.12,5.42,7.7,12.56ZM666.88,1253.29c167.6-17.01,169.74,223.19,19.3,227.35-143.08,3.95-157.76-213.29-19.3-227.35ZM759.33,1531.53c-3.69-4.35,1.41-3.35,1.94-4.93,3.58-10.85,17.05-11,26.65-18.33,22.15-16.9,32.35-28.41,47.32-51.64-19.31,25.99-43.43,53.22-75.95,61.96l47.02-33.92,36.02-44.07,194.82,73v144.93l-7.52-109.75,1.51,107.76c-3.64,1.58-6.3-1.61-7.99-2-9.33-2.18-17.79-11.69-27.99-11.99,2.58,1.4,32.47,15.88,29.99,17.97-70.3-31-141.91-64.71-210.62-100.21-8.53-4.41-51.95-24.94-55.2-28.77ZM988.13,1748.49c-5.69,1.23-6.51-9.33-1.96-9.93,1.92-.25,8.21,8.58,1.96,9.93ZM1063.08,1733.35c-2.46-17.67,15.69-4.03,16.04-2.81.32,1.13-14.12,16.6-16.04,2.81ZM1161.07,1662.53c-4.74,5.89-9.22-7.93-2.99-7.93,2.07,0,4.17,6.46,2.99,7.93ZM1192.09,1640.55l-2.05,1.95-.93-.93,2.97-2.97v1.95ZM1249.02,1600.56h-1.95v-3.97h1.95v3.97ZM1734.81,1324.7c-164.05,80.32-326.52,164-489.77,245.88.61,13.05,24.92-7.23,12.55,13.55-4.78,8.03-13.51,4.37-18.49,7.5-5.08,3.19-7.95,13.97-18.59,12.61-29.17-3.75,21.9-20.67,16.54-29.65-.54.26-1.46-.26-2,0l-2,2c-.54.26-1.46-.26-2,0l-4,2c-1.35.63-2.65,1.37-4,2-2.75,5.24-9.09,5.89-13.99,8-1.73.74-3.92,1.11-6,2l-6,4c-.93.42-3.08-.42-4,0-1.59,3.45-4.82,4.63-8,6-.55.24-1.41-.22-2,0-.58.62-1.24,1.71-2,2-.58.22-1.44-.24-2,0-5.15,2.21-10.21,5.01-15.01,7.94l3.01-7.94-7.85-2.81,3.86-73.15c-12.69,8.71-3,54.95-5.99,71.01-.63,3.38,1,3.33-4,2.96v-72.97c24.88-12.48,38.27-31.52,55.92-52.02,103.23-119.85,199.49-255.92,299.98-379.71,85.01-104.73,186.4-243.26,278.79-336.92,3.9-3.95,13.43-15.15,18.13-16,2.53-.46,43.76,6.87,50.84,8.01,7.78,1.25,18.52-1.5,21.99,10,.69,2.28-.34,7.02,0,10,.91,7.96-.27,17.66,0,25.99.15,4.65-.12,9.34,0,13.99.12,4.66-.08,9.34,0,13.99.16,9.31-.12,18.68,0,27.99.06,4.66-.05,9.33,0,13.99.03,3.33-.03,6.66,0,10,.05,5.99-.04,12,0,17.99s-.04,12,0,17.99c.03,4-.02,8,0,11.99.02,2.67-.01,5.33,0,8,.05,9.31.02,18.68,0,27.99,0,4,.02,8,0,11.99-.02,4.66.02,9.33,0,13.99-.04,7.98.04,16.01,0,23.99-.04,6.65.05,13.34,0,19.99-.12,16.63.2,33.35,0,49.98-.02,1.33.02,2.67,0,4-.23,17.22.87,34.8,0,51.98-.17,3.3.32,6.73,0,10-.39,3.93.27,8.04,0,11.99-.82,2.58-2.52,2.73-4,4-7.09,6.11-23.21,5.11-32.26,8.72-26.33,10.49-52.23,24-69.69,47.26-.82.82-1.14,3.03-2,4l-2,2c-.84,1.01-1.17,2.87-2,4l-6,6c-.46.74.46,3.22,0,4l-4,4c-.27.52.27,1.46,0,2l-2,4c-.88,2-1.24,4.03-2,6l-4,8c-.18.61.17,1.38,0,2l-2,6c-.14.63.13,1.36,0,2l-2,4c-.3,1.92.21,4.05,0,6l-2,10c0,1.33-.06,2.67,0,4,1.19,27.98,1.96,18.36,21.98,34.95-2.86,10.08-22.18-10.54-29.97-6.96ZM1767.84,1308.68c-6.92-2.31.51-10.72,2.95-7.96.28.32,1.78,9.54-2.95,7.96Z"/>
      <polygon class="cls-20" points="1027.15 1512.61 1029.62 1548.79 1029.15 1514.61 1027.15 1512.61"/>
      <path class="cls-20" d="M507.4,1374.47l3.98-55.77c-3.05,14-5.38,36.6-3.98,55.77Z"/>
    </g>
  </g>
  <path class="cls-22" d="M1800.78,1452.64c-4.07-1.79-8.02-3.62-10-8,5.21,1.58,7.45,3.09,10,8Z"/>
  <path class="cls-22" d="M1786.79,1444.64c-3.79.17-6.68,2.78-10,4,3.38-5.94,4.53-4.81,10-4Z"/>
  <g>
    <path class="cls-18" d="M1048.13,80.46c145.47,3.14,141.43,224.14-12.04,212.78-129.9-9.61-127.64-215.8,12.04-212.78Z"/>
    <path class="cls-18" d="M666.88,1253.29c167.6-17.01,169.74,223.19,19.3,227.35-143.08,3.95-157.76-213.29-19.3-227.35Z"/>
    <path class="cls-18" d="M215.18,467.62c146.5-7.82,161.04,214.56,23.27,227.31-150.92,13.97-172-219.37-23.27-227.31Z"/>
    <path class="cls-18" d="M1850.37,469.71c179.85-21.29,155.12,265.65-11.88,222.55-116.43-30.04-108.93-208.25,11.88-222.55Z"/>
    <path class="cls-18" d="M1994.69,1370.68l-2,2c-1.42,2.51-2.42,5.7-4,8l-6,6c-4.33,5.3-7.14,7.59-11.99,11.99l-6,6c-.41.32-1.58-.32-2,0l-4,4c-.46.31-1.53-.3-2,0l-2,2c-.49.29-1.5-.29-2,0l-2,2c-.52.27-1.46-.26-2,0l-2,2c-.56.24-1.42-.23-2,0l-2,2c-.59.21-1.39-.19-2,0l-4,2c-.62.17-1.37-.16-2,0l-2,2c-1.75.38-4.14-.3-6,0l-4,2c-.66.07-1.34-.06-2,0-34.58,2.99-57.51-1.02-85.96-21.99-2.59-1.91-5.66-3.82-8-6l-2-2c-.81-.85-1.15-2.94-2-4-2.42-3.02-4.13-6.4-8-8-.31-.43.3-1.51,0-2l-4-4c-.28-.52.27-1.48,0-2-1.56-2.99-1.04-6.55-6-8-.57-1.26.56-4.67,0-6l-4-6c-.19-.6.17-1.38,0-2l-2-4c-.14-.63.12-1.36,0-2l-2-6c-25.04-203.22,287.02-142.51,197.91,31.99Z"/>
  </g>
  <path class="cls-8" d="M1878.75,760.96c.69,2.28-.34,7.02,0,10v25.99c.15,4.65-.12,9.34,0,13.99v13.99c.16,9.31-.12,18.68,0,27.99v13.99c.03,3.33-.03,6.66,0,10v17.99c.04,5.99-.04,12,0,17.99v11.99c.02,2.67-.01,5.33,0,8v27.99c0,4,.02,8,0,11.99v13.99c-.04,7.98.04,16.01,0,23.99v19.99c-.12,16.63.2,33.35,0,49.98v4c-.23,17.22.87,34.8,0,51.98v10c-.39,3.93.27,8.04,0,11.99l-4,4c-7.09,6.11-23.21,5.11-32.26,8.72-26.33,10.49-52.23,24-69.69,47.26-.82.82-1.14,3.03-2,4-.62.7-1.4,1.27-2,2-.84,1.01-1.17,2.87-2,4-1.1,1.49-3.77,2.46-6,6-.46.74.46,3.22,0,4-.3.51-2.61,1.32-4,4-.27.52.27,1.46,0,2-.68,1.38-1.34,2.51-2,4-.88,2-1.24,4.03-2,6s-2.66,3.52-4,8c-.18.61.17,1.38,0,2-.41,1.49-1.33,2.95-2,6-.14.63.13,1.36,0,2-.04.22-1.52.97-2,4-.3,1.92.21,4.05,0,6s-1.99,4.8-2,10c0,1.33-.06,2.67,0,4-5.03,9.69,2.1,20.03-8,27.99-164.05,80.32-326.52,164-489.77,245.88-2.64,1.32-5.38,2.71-8,4-.54.26-1.46-.26-2,0-.81.39-1.39,1.71-2,2-.54.26-1.46-.26-2,0-1.35.65-2.69,1.38-4,2s-2.65,1.37-4,2c-4.66,2.17-11.08,3.12-13.99,8-1.73.74-3.92,1.11-6,2-2.82,1.2-4.72,3.42-6,4-.93.42-3.08-.42-4,0-3.14,1.43-6.43,2.5-8,6-.55.24-1.41-.22-2,0-.76.29-1.43,1.37-2,2-.58.22-1.44-.24-2,0-5.15,2.21-10.21,5.01-15.01,7.94l3.01-7.94,395.81-199.91c56.52-27.51,112.71-55.86,169.01-83.87,2.83-76.82,44.43-134.98,118.85-156.02,5.15-1.46,14.3,2.15,19.99-2l2-2v-8c2.53-26.05-.24-58.95,0-85.96v-23.99c.02-4-.03-8,0-11.99v-4c.11-18.63-.06-37.34,0-55.97v-10c-.03-13.97.07-28.01,0-41.98v-6c-.2-34.67,6.31-122.23,0-149.93h6Z"/>
  <path class="cls-28" d="M1856.76,750.97c2.22,3.94,9.04.68,11.7,2.38.95.61.02,3.33.29,3.62-5.94-.34-12.08.5-17.99,0-.22-.02-.83-1.63-4-2-19.35-2.28-44.51-15.37-51.98,4-127.26,164.8-275.55,319.53-397.81,487.77l-201.97,254.81c-8.42,13.37-21.39,17.83-31.92,25.06-12.69,8.71-3,54.95-5.99,71.01-.63,3.38,1,3.33-4,2.96v-72.97c24.88-12.48,38.27-31.52,55.93-52.02,103.23-119.85,199.49-255.92,299.98-379.71,85.01-104.73,186.4-243.26,278.79-336.92,3.9-3.95,13.43-15.15,18.13-16,2.53-.46,43.76,6.87,50.84,8.01Z"/>
  <path class="cls-19" d="M229.52,746.97c-2.5.56-8.42-1.84-7.98,1.97,2.56-.3,7.44,1.51,7.98-1.97,3.96,1.19,6.26,1.72,8,6l-2,2c-2.25-1.95-4.98-3.54-8-4-1.33-.2-4.93-.3-6,0-3.17.88-5.82.19-6.03,4.98l3.05,496.83c2.52,2.72,6.14,1.42,6.97,1.95,46.21,29.57,260.06,124.07,279.87,147.93.75.9,4.41,5.67,4,5.97-100.27-48.71-200.88-100.52-297.41-157.35l-.54-495.42c1.95-10.88,8.91-11.65,18.09-8.9Z"/>
  <path class="cls-27" d="M561.36,1228.74c-.41-.49-8.29-5.85-10-8-109.13-137.39-200.62-305.08-305.86-447.79-2.62-3.55-7.53-15.85-10-17.99l2-2,323.85,475.78Z"/>
  <path class="cls-10" d="M835.24,1456.64c-19.31,25.99-43.43,53.22-75.95,61.96l47.02-33.92,36.02-44.07,194.82,73v144.93l-10-145.93c-60.26-20.45-120.34-41.63-179.92-63.97-.41-.15-3.31-6.63-7.88-3.89-.92,3.44-2.21,6.89-4.12,9.89-.3.47.3,1.53,0,2Z"/>
  <path class="cls-17" d="M995.16,1642.55c2.58,1.4,32.47,15.88,29.99,17.97-70.3-31-141.91-64.71-210.62-100.21-8.53-4.41-51.95-24.94-55.2-28.77-3.69-4.35,1.41-3.35,1.94-4.93,77.25,39.77,157.51,74.53,233.89,115.95Z"/>
  <path class="cls-23" d="M561.36,1228.74c2.81,3.41,9.12,5.42,7.7,12.56-46.77,40.54-68.85,100.34-51.69,161.35-5.19.96-3.56-.94-4.91-3.97-8.57-19.25-5.61-59.15-1.07-79.98,4.95-22.73,15.67-38.43,29.99-55.97,7.16-8.78,26.95-17.37,19.99-27.99-2.2-3.36-10.07-7.29-10-13.99,1.71,2.15,9.59,7.5,10,8Z"/>
  <path class="cls-13" d="M1704.83,639.02c-6.85-23.34-6.92-34.39-10-57.97-.33-2.55-.73-6.6,2-8-.18,21.15,3.86,45.17,8,65.97Z"/>
  <path class="cls-12" d="M1878.75,760.96h-6c-.58-2.53-2.93-2.86-4-4-.27-.28.66-3.01-.29-3.62-2.66-1.7-9.48,1.56-11.7-2.38,7.78,1.25,18.52-1.5,21.99,10Z"/>
  <path class="cls-12" d="M1878.75,960.87v-27.99c.05,9.31.02,18.68,0,27.99Z"/>
  <path class="cls-12" d="M1878.75,796.95v-25.99c.91,7.96-.27,17.66,0,25.99Z"/>
  <path class="cls-12" d="M1878.75,1030.84v-19.99c-.04,6.65.05,13.34,0,19.99Z"/>
  <path class="cls-12" d="M1878.75,894.9v-17.99c.05,5.99-.04,12,0,17.99Z"/>
  <path class="cls-12" d="M1878.75,986.86v-13.99c-.02,4.66.02,9.33,0,13.99Z"/>
  <path class="cls-12" d="M1878.75,824.93v-13.99c.12,4.66-.08,9.34,0,13.99Z"/>
  <path class="cls-12" d="M1878.75,866.91v-13.99c.06,4.66-.05,9.33,0,13.99Z"/>
  <path class="cls-12" d="M1878.75,924.89v-11.99c.03,4-.02,8,0,11.99Z"/>
  <path class="cls-12" d="M1878.75,1146.78v-10c-.17,3.3.32,6.73,0,10Z"/>
  <path class="cls-22" d="M1798.78,1344.69c-.09-.49-1.55-2.38-2-6l2,6Z"/>
  <path class="cls-12" d="M1878.75,1084.81v-4c-.02,1.33.02,2.67,0,4Z"/>
  <path class="cls-22" d="M1800.78,1350.69c-.06-.22-1.4-1.3-2-4l2,4Z"/>
  <path class="cls-22" d="M1804.78,1358.68c-.16-.37-2.44-1.13-4-6l4,6Z"/>
  <path class="cls-22" d="M1810.78,1372.68c-2.28-2.34-4.65-4.99-6-8,4.96,1.45,4.43,5.01,6,8Z"/>
  <path class="cls-22" d="M1940.72,1416.66c-.37.12-1.6,1.35-4,2l4-2Z"/>
  <path class="cls-22" d="M1926.72,1420.65c-.22.04-.96,1.65-4,2l4-2Z"/>
  <path class="cls-7" d="M1710.83,651.02c-.24-.59-1.71-1.23-2-2l2,2Z"/>
  <path class="cls-22" d="M1932.72,1420.65l2-2c-.14.03-.76,1.73-2,2Z"/>
  <path class="cls-22" d="M1942.72,1416.66l2-2c-.29.12-.85,1.6-2,2Z"/>
  <path class="cls-22" d="M1946.72,1414.66l2-2c-.5.24-1.08,1.6-2,2Z"/>
  <path class="cls-22" d="M1950.71,1412.66l2-2c-.54.31-1.08,1.52-2,2Z"/>
  <path class="cls-22" d="M1954.71,1410.66l2-2c-.57.36-1.09,1.46-2,2Z"/>
  <path class="cls-22" d="M1958.71,1408.66l4-4c-.91.69-1.63,2.41-4,4Z"/>
  <path class="cls-22" d="M1964.71,1404.66l6-6c-1.99,1.8-3,3.62-6,6Z"/>
  <path class="cls-22" d="M1826.77,1394.67c-.69-.64-1.35-1.31-2-2l2,2Z"/>
  <path class="cls-22" d="M1822.77,1388.67c-3.79-1.68-5.68-4.83-8-8,3.86,1.59,5.58,4.97,8,8Z"/>
  <path class="cls-22" d="M1982.7,1386.67l6-6c-2.31,3.35-4.56,4.24-6,6Z"/>
  <path class="cls-22" d="M1814.78,1378.67c-.33-.54-2.58-1.35-4-4l4,4Z"/>
  <path class="cls-22" d="M1992.69,1372.68l2-2c-.39.77-1.61,1.32-2,2Z"/>
  <path class="cls-12" d="M1874.75,1162.78l4-4c-.82,2.58-2.52,2.73-4,4Z"/>
  <path class="cls-20" d="M1762.8,1454.64c.64-.6,1.25-1.63,2-2-.66.59-1.24,1.59-2,2Z"/>
  <path class="cls-20" d="M1245.04,1570.58c.61,13.05,24.92-7.23,12.55,13.55-4.78,8.03-13.51,4.37-18.49,7.5s-7.95,13.97-18.59,12.61c-29.17-3.75,21.9-20.67,16.54-29.65,2.62-1.29,5.36-2.68,8-4Z"/>
  <path class="cls-20" d="M1742.81,1296.71c1.19,27.98,1.96,18.36,21.98,34.95-2.86,10.08-22.18-10.54-29.97-6.96,10.09-7.96,2.97-18.3,8-27.99Z"/>
  <path class="cls-20" d="M1079.12,1730.54c.32,1.13-14.12,16.59-16.04,2.81-2.46-17.67,15.69-4.03,16.04-2.81Z"/>
  <path class="cls-20" d="M1053.13,1794.48h-29.99c8.89.7,20.99.51,29.99,0Z"/>
  <path class="cls-20" d="M986.17,1738.55c1.92-.25,8.21,8.58,1.96,9.93-5.69,1.23-6.51-9.33-1.96-9.93Z"/>
  <path class="cls-20" d="M1770.78,1300.72c.28.32,1.78,9.54-2.95,7.96-6.92-2.31.51-10.72,2.95-7.96Z"/>
  <path class="cls-20" d="M1161.07,1662.53c-4.74,5.89-9.22-7.93-2.99-7.93,2.07,0,4.17,6.46,2.99,7.93Z"/>
  <path class="cls-20" d="M1742.81,1292.71c.01-5.2,1.78-7.95,2-10l-2,10Z"/>
  <path class="cls-20" d="M1223.05,1580.58c-2.75,5.24-9.09,5.89-13.99,8,2.92-4.87,9.34-5.83,13.99-8Z"/>
  <path class="cls-20" d="M1746.81,1270.72c.67-3.05,1.59-4.51,2-6l-2,6Z"/>
  <path class="cls-20" d="M1009.15,1792.48l-6-4c2.81.7,5.64,3.93,6,4Z"/>
  <path class="cls-20" d="M1185.07,1736.51c-2.33,2.35-5.03,4.53-8,6,1.52-4.85,4.74-4.45,8-6Z"/>
  <path class="cls-20" d="M903.2,1742.5c-4.99-2.38-11.29-6.79-15.99-10,5.61,2.62,12.82,2.86,15.99,10Z"/>
  <path class="cls-20" d="M1754.81,1248.74c.66-1.49,1.32-2.62,2-4l-2,4Z"/>
  <path class="cls-20" d="M1748.81,1262.73c1.34-4.48,3.24-6.03,4-8l-4,8Z"/>
  <path class="cls-20" d="M869.22,1724.51l-6-4c3.22,1.6,5.33,3.67,6,4Z"/>
  <path class="cls-20" d="M859.23,1718.51l-4-2c1.34.66,2.67,1.34,4,2Z"/>
  <path class="cls-20" d="M1744.81,1276.72c.47-3.03,1.96-3.78,2-4l-2,4Z"/>
  <rect class="cls-20" x="1247.07" y="1596.58" width="1.95" height="3.97"/>
  <path class="cls-20" d="M1185.07,1600.57c1.57-3.5,4.85-4.56,8-6-1.59,3.45-4.82,4.63-8,6Z"/>
  <path class="cls-20" d="M1197.07,1594.57c1.28-.57,3.18-2.79,6-4l-6,4Z"/>
  <path class="cls-20" d="M1231.05,1576.58l-4,2c1.31-.62,2.64-1.35,4-2Z"/>
  <path class="cls-20" d="M1752.81,1454.64l-4,2c1.32-.65,2.65-1.34,4-2Z"/>
  <path class="cls-20" d="M1630.86,1514.61l-6,4c.63-.32,2.7-2.36,6-4Z"/>
  <path class="cls-20" d="M1668.85,1496.62c.53-.26,1.11-1.56,2-2l-2,2Z"/>
  <path class="cls-20" d="M1676.84,1492.62c.54-.27,1.11-1.56,2-2l-2,2Z"/>
  <path class="cls-20" d="M1658.85,1502.62c.28-.14,1.47-2.74,4-4l-4,4Z"/>
  <path class="cls-20" d="M1648.85,1506.61c.61-.3,1.19-1.6,2-2l-2,2Z"/>
  <path class="cls-20" d="M1644.86,1508.61c.5-.25,1.07-1.54,2-2l-2,2Z"/>
  <path class="cls-20" d="M1640.86,1510.61c.5-.25,1.07-1.54,2-2l-2,2Z"/>
  <path class="cls-20" d="M1684.84,1488.62c.57-.28,1.15-1.58,2-2l-2,2Z"/>
  <path class="cls-20" d="M1636.86,1512.61c.5-.25,1.07-1.54,2-2l-2,2Z"/>
  <path class="cls-20" d="M1632.86,1514.61c.5-.25,1.07-1.54,2-2l-2,2Z"/>
  <path class="cls-20" d="M1700.83,1480.63c.54-.27,1.11-1.56,2-2l-2,2Z"/>
  <path class="cls-20" d="M1714.82,1474.63c.27-.13,1.46-2.73,4-4l-4,4Z"/>
  <path class="cls-20" d="M1620.87,1520.61c.48-.24,1.05-1.53,2-2l-2,2Z"/>
  <path class="cls-20" d="M1612.87,1524.61c.61-.3,1.19-1.6,2-2l-2,2Z"/>
  <path class="cls-20" d="M1608.87,1526.6c.5-.25,1.07-1.54,2-2l-2,2Z"/>
  <path class="cls-20" d="M1720.82,1470.63c.54-.27,1.11-1.56,2-2l-2,2Z"/>
  <path class="cls-20" d="M1604.88,1528.6c.5-.25,1.07-1.54,2-2l-2,2Z"/>
  <path class="cls-20" d="M1598.88,1530.6c.26-.13.8-1.4,2-2l-2,2Z"/>
  <path class="cls-20" d="M1728.82,1466.63c.54-.27,1.11-1.56,2-2l-2,2Z"/>
  <path class="cls-20" d="M1588.88,1536.6c.63-.31,1.22-1.61,2-2l-2,2Z"/>
  <path class="cls-20" d="M1582.89,1538.6c.26-.13.8-1.4,2-2l-2,2Z"/>
  <path class="cls-20" d="M1572.89,1544.6c.28-.14,1.47-2.74,4-4l-4,4Z"/>
  <path class="cls-20" d="M1736.81,1462.63c.54-.27,1.11-1.56,2-2l-2,2Z"/>
  <path class="cls-20" d="M1568.89,1546.6c.48-.24,1.06-1.53,2-2l-2,2Z"/>
  <path class="cls-20" d="M1564.89,1548.59c.5-.25,1.07-1.54,2-2l-2,2Z"/>
  <path class="cls-20" d="M1556.9,1552.59c.61-.3,1.19-1.6,2-2l-2,2Z"/>
  <path class="cls-20" d="M1552.9,1554.59c.5-.25,1.07-1.54,2-2l-2,2Z"/>
  <path class="cls-20" d="M1536.91,1562.59c.63-.31,1.22-1.61,2-2l-2,2Z"/>
  <path class="cls-20" d="M1758.8,1452.64c.25-.13,1.39-2.67,4-4l-4,4Z"/>
  <path class="cls-20" d="M1520.91,1570.58c.63-.31,1.22-1.61,2-2l-2,2Z"/>
  <path class="cls-20" d="M1512.92,1574.58c.25-.13,1.37-2.69,4-4l-4,4Z"/>
  <path class="cls-20" d="M1233.05,1576.58c.6-.29,1.19-1.6,2-2l-2,2Z"/>
  <path class="cls-20" d="M1504.92,1578.58c.25-.13,1.37-2.69,4-4l-4,4Z"/>
  <path class="cls-20" d="M1766.8,1448.64c.42-.22,1.19-2.87,4-4l-4,4Z"/>
  <path class="cls-20" d="M1498.93,1580.58c.26-.13.8-1.4,2-2l-2,2Z"/>
  <path class="cls-20" d="M1488.93,1586.58c.28-.14,1.47-2.74,4-4l-4,4Z"/>
  <path class="cls-20" d="M1484.93,1588.58c.48-.24,1.06-1.53,2-2l-2,2Z"/>
  <path class="cls-20" d="M1474.94,1592.57c.53-.26,1.1-1.55,2-2l-2,2Z"/>
  <path class="cls-20" d="M1466.94,1596.57c.54-.27,1.11-1.56,2-2l-2,2Z"/>
  <path class="cls-20" d="M1462.94,1598.57c.5-.25,1.07-1.54,2-2l-2,2Z"/>
  <path class="cls-20" d="M1181.07,1602.57c.57-.62,1.24-1.71,2-2-.58.62-1.24,1.71-2,2Z"/>
  <path class="cls-20" d="M1450.95,1604.57c.53-.26,1.11-1.55,2-2l-2,2Z"/>
  <path class="cls-20" d="M1436.95,1612.56c.63-.31,1.22-1.61,2-2l-2,2Z"/>
  <path class="cls-20" d="M1420.96,1620.56c.28-.14,1.47-2.74,4-4l-4,4Z"/>
  <path class="cls-20" d="M1414.96,1622.56c.26-.13.8-1.4,2-2l-2,2Z"/>
  <path class="cls-20" d="M1406.97,1626.56c.54-.27,1.11-1.56,2-2l-2,2Z"/>
  <path class="cls-20" d="M1390.98,1634.55c.57-.28,1.15-1.58,2-2l-2,2Z"/>
  <path class="cls-20" d="M1382.98,1638.55c.54-.27,1.11-1.56,2-2l-2,2Z"/>
  <polygon class="cls-20" points="1192.09 1638.6 1192.09 1640.55 1190.05 1642.5 1189.12 1641.58 1192.09 1638.6"/>
  <path class="cls-20" d="M1374.98,1642.55c.54-.27,1.11-1.56,2-2l-2,2Z"/>
  <path class="cls-20" d="M1354.99,1652.55c.53-.26,1.11-1.55,2-2l-2,2Z"/>
  <path class="cls-20" d="M1343,1658.54c.53-.27,1.11-1.55,2-2l-2,2Z"/>
  <path class="cls-20" d="M1339,1660.54c.5-.25,1.07-1.54,2-2l-2,2Z"/>
  <path class="cls-20" d="M1331,1664.54c.54-.27,1.11-1.56,2-2l-2,2Z"/>
  <path class="cls-20" d="M1321.01,1670.54c.63-.32,1.22-1.61,2-2l-2,2Z"/>
  <path class="cls-20" d="M1315.01,1672.54c.26-.13.8-1.4,2-2l-2,2Z"/>
  <path class="cls-20" d="M1307.02,1676.53c.54-.27,1.11-1.56,2-2l-2,2Z"/>
  <path class="cls-20" d="M1291.02,1684.53c.53-.26,1.11-1.55,2-2l-2,2Z"/>
  <path class="cls-20" d="M1275.03,1692.53c.53-.26,1.11-1.55,2-2l-2,2Z"/>
  <path class="cls-20" d="M1271.03,1694.53c.5-.25,1.07-1.54,2-2l-2,2Z"/>
  <path class="cls-20" d="M1267.03,1696.53c.5-.25,1.07-1.54,2-2l-2,2Z"/>
  <path class="cls-20" d="M1263.04,1698.52c.5-.25,1.07-1.54,2-2l-2,2Z"/>
  <path class="cls-20" d="M1247.04,1706.52c.26-.13.8-1.4,2-2l-2,2Z"/>
  <path class="cls-20" d="M843.23,1710.52l-2-2c1.19.59,1.73,1.87,2,2Z"/>
  <path class="cls-20" d="M1237.05,1712.52c.28-.14,1.47-2.74,4-4l-4,4Z"/>
  <path class="cls-20" d="M851.23,1714.52l-2-2c.89.44,1.46,1.73,2,2Z"/>
  <path class="cls-20" d="M1231.05,1714.52c.26-.13.8-1.41,2-2l-2,2Z"/>
  <path class="cls-20" d="M1215.06,1722.51c.53-.26,1.11-1.56,2-2l-2,2Z"/>
  <path class="cls-20" d="M1211.06,1724.51c.5-.24,1.07-1.55,2-2l-2,2Z"/>
  <path class="cls-20" d="M873.22,1726.51l-2-2c.95.47,1.52,1.76,2,2Z"/>
  <path class="cls-20" d="M1207.06,1726.51c.49-.24,1.07-1.54,2-2l-2,2Z"/>
  <path class="cls-20" d="M877.22,1728.51l-2-2c.93.46,1.51,1.76,2,2Z"/>
  <path class="cls-20" d="M1203.06,1728.51c.49-.24,1.07-1.55,2-2l-2,2Z"/>
  <path class="cls-20" d="M1756.8,1242.74c1.39-2.67,3.7-3.49,4-4l-4,4Z"/>
  <path class="cls-20" d="M881.21,1730.51l-2-2c.93.46,1.51,1.76,2,2Z"/>
  <path class="cls-20" d="M1199.07,1730.51c.5-.24,1.07-1.55,2-2l-2,2Z"/>
  <path class="cls-20" d="M885.21,1732.51l-2-2c.93.44,1.52,1.78,2,2Z"/>
  <path class="cls-20" d="M1195.07,1732.51c.49-.24,1.07-1.54,2-2l-2,2Z"/>
  <path class="cls-20" d="M1760.8,1234.74c2.23-3.54,4.9-4.51,6-6l-6,6Z"/>
  <path class="cls-20" d="M1191.07,1734.51c.49-.24,1.07-1.55,2-2l-2,2Z"/>
  <path class="cls-20" d="M1768.8,1224.75c.6-.73,1.38-1.3,2-2l-2,2Z"/>
  <path class="cls-20" d="M909.2,1744.5l-2-2c1.19.58,1.72,1.86,2,2Z"/>
  <path class="cls-20" d="M913.2,1746.5l-2-2c.93.47,1.5,1.74,2,2Z"/>
  <path class="cls-20" d="M917.2,1748.5l-2-2c.93.47,1.5,1.74,2,2Z"/>
  <path class="cls-20" d="M1161.08,1750.5c.62-.3,1.22-1.63,2-2l-2,2Z"/>
  <path class="cls-20" d="M1155.09,1752.5c.25-.12.8-1.42,2-2l-2,2Z"/>
  <path class="cls-20" d="M927.19,1754.5l-2-2c.78.4,1.37,1.68,2,2Z"/>
  <path class="cls-20" d="M931.19,1756.5l-2-2c.93.47,1.5,1.75,2,2Z"/>
  <path class="cls-20" d="M1147.09,1756.5c.53-.26,1.11-1.56,2-2l-2,2Z"/>
  <path class="cls-20" d="M935.19,1758.5l-2-2c.93.46,1.5,1.75,2,2Z"/>
  <path class="cls-20" d="M1143.09,1758.5c.49-.24,1.07-1.54,2-2l-2,2Z"/>
  <path class="cls-20" d="M1137.09,1762.49c.26-.13,1.45-2.74,4-4l-4,4Z"/>
  <path class="cls-20" d="M943.19,1762.49l-2-2c.81.4,1.39,1.7,2,2Z"/>
  <path class="cls-20" d="M1131.1,1764.49c.26-.13.8-1.41,2-2l-2,2Z"/>
  <path class="cls-20" d="M1127.1,1766.49c.49-.23,1.07-1.55,2-2l-2,2Z"/>
  <path class="cls-20" d="M959.18,1770.49l-2-2c.78.36,1.38,1.72,2,2Z"/>
  <path class="cls-20" d="M967.17,1774.49l-4-4c2.71,1.21,3.74,3.88,4,4Z"/>
  <path class="cls-20" d="M1111.11,1774.49c.59-.26,1.2-1.64,2-2l-2,2Z"/>
  <path class="cls-20" d="M971.17,1776.49l-2-2c.94.41,1.55,1.81,2,2Z"/>
  <path class="cls-20" d="M981.17,1780.49l-2-2c.89.36,1.51,1.8,2,2Z"/>
  <path class="cls-20" d="M1099.11,1780.49c.5-.21,1.11-1.62,2-2l-2,2Z"/>
  <path class="cls-20" d="M985.17,1782.48l-2-2c.92.37,1.55,1.83,2,2Z"/>
  <path class="cls-20" d="M989.16,1784.48l-2-2c.91.34,1.56,1.84,2,2Z"/>
  <path class="cls-20" d="M1091.12,1784.48c.49-.19,1.13-1.66,2-2l-2,2Z"/>
  <path class="cls-20" d="M993.16,1786.48l-2-2c.9.31,1.57,1.86,2,2Z"/>
  <path class="cls-20" d="M997.16,1788.48l-2-2c.88.27,1.59,1.88,2,2Z"/>
  <path class="cls-20" d="M1083.12,1788.48c.54-.18,1.23-1.73,2-2l-2,2Z"/>
  <path class="cls-20" d="M1077.12,1790.48c.17-.04.82-1.66,2-2l-2,2Z"/>
  <path class="cls-20" d="M1017.15,1794.48l-2-2c1.19.17,1.86,1.98,2,2Z"/>
  <path class="cls-20" d="M1061.13,1794.48c.14-.01.77-1.83,2-2l-2,2Z"/>
  <path class="cls-20" d="M1744.81,1458.64c.32-.16.85-1.43,2-2l-2,2Z"/>
  <path class="cls-16" d="M551.37,1220.75c-109.13-137.39-200.62-305.08-305.86-447.79l-17.99-21.99c-1.33-.2-4.93-.3-6,0-2.65,2.8-3.19,4.1-3.16,7.95,1.36,162.3,1.51,324.62,1.02,486.95l6.14,8.86c46.21,29.56,260.06,124.07,279.87,147.93l6-83.96c4.95-22.73,15.67-38.43,29.99-55.97l19.99-27.99c-2.21-3.36-10.07-7.29-10-13.99Z"/>
  <path class="cls-20" d="M221.52,750.97c-2.65,2.8-3.19,4.1-3.16,7.95,1.36,162.3,1.51,324.62,1.02,486.95l6.14,8.86c-.84-.53-4.45.77-6.97-1.95l-3.05-496.83c.2-4.79,2.86-4.09,6.03-4.98Z"/>
  <path class="cls-20" d="M541.37,1262.73l19.99-27.99c6.96,10.62-12.83,19.21-19.99,27.99Z"/>
  <path class="cls-20" d="M235.52,754.97c2.47,2.14,7.38,14.44,10,17.99l-17.99-21.99c3.02.45,5.75,2.05,8,4Z"/>
  <path class="cls-20" d="M1846.76,754.97l4,2c5.91.5,12.05-.34,17.99,0,1.07,1.13,3.42,1.47,4,4,6.31,27.7-.2,115.26,0,149.93.01,2-.01,4,0,6,.07,13.97-.03,28.01,0,41.98,0,3.33.01,6.66,0,10-.06,18.63.11,37.34,0,55.97,0,1.33,0,2.67,0,4-.03,4,.02,8,0,11.99-.05,7.98.07,16.01,0,23.99-.24,27.01,2.53,59.91,0,85.96-.19,1.97.13,4.02,0,6v2l-2,2c-5.69,4.15-14.84.54-19.99,2l20.06-5.37-.07-393.44-3.28-4.71c-24.91,6.57-56.02-20.94-72.68-.29,7.46-19.37,32.63-6.28,51.98-4Z"/>
  <path class="cls-12" d="M1872.75,1064.82c.07-7.98-.05-16.01,0-23.99v23.99Z"/>
  <path class="cls-12" d="M1872.75,968.87c.01-3.33,0-6.66,0-10v10Z"/>
  <path class="cls-12" d="M1872.75,916.89c-.01-2,.01-4,0-6v6Z"/>
  <path class="cls-12" d="M1872.75,1156.78c.13-1.98-.19-4.03,0-6v6Z"/>
  <path class="cls-12" d="M1872.75,1028.84c0-1.33,0-2.67,0-4v4Z"/>
  <path class="cls-12" d="M1870.75,1160.78l2-2-2,2Z"/>
  <path class="cls-12" d="M1850.76,756.97l-4-2c3.17.37,3.78,1.98,4,2Z"/>
  <path class="cls-27" d="M229.52,746.97c-.54,3.48-5.42,1.67-7.98,1.97-.44-3.82,5.48-1.41,7.98-1.97Z"/>
  <path class="cls-11" d="M1029.15,1514.61l-2-2c-60.26-20.45-120.34-41.63-179.92-63.97l-11.99,6c-.3.47.3,1.53,0,2-14.97,23.23-25.16,34.73-47.32,51.64-9.6,7.33-23.07,7.48-26.65,18.33,77.25,39.77,157.51,74.53,233.89,115.95,10.2.3,18.66,9.81,27.99,11.99,1.68.39,4.34,3.58,7.99,2l-1.99-141.94Z"/>
  <path class="cls-20" d="M847.23,1448.64l-11.99,6c1.91-3.01,3.2-6.46,4.12-9.89,4.56-2.73,7.46,3.74,7.88,3.89Z"/>
  <path class="cls-24" d="M1870.75,763.97l-3.28-4.71c-24.91,6.57-56.02-20.94-72.68-.29-127.26,164.8-275.55,319.53-397.81,487.77l-201.97,254.81c-8.42,13.37-21.39,17.83-31.92,25.06l-3.86,73.15,7.85,2.81,395.81-199.91c56.52-27.51,112.71-55.86,169.01-83.87,2.83-76.82,44.43-134.98,118.85-156.02l20.06-5.37-.07-393.44ZM1319.01,1356.68c10.56-13.35,21.05-26.81,31.53-40.29-10.48,13.48-20.97,26.95-31.53,40.29ZM1382.98,1273.72c.06.29.12.59.08.8.04-.22-.02-.51-.08-.8ZM1382.98,1272.72c1.45-1.85,3.1-3.23,4.38-4.38l-4.38,4.38ZM1388.98,1264.73c1.06-1.35,2.23-2.32,3.09-3.09l-3.09,3.09ZM1654.76,1337.6c-1.2.42-2.76,1.25-4.55,2.32,1.79-1.07,3.35-1.9,4.55-2.32ZM1610.88,1342.7c-.08-.09-.12-.31-.12-.63,0,.32.04.54.12.63ZM1578.89,1313.7c-1.48-1.04-1.77-3.23-2.23-5.52.46,2.29.75,4.49,2.23,5.52ZM1555.86,1274.2c-.4-.11-.85-.16-1.34-.15.49-.01.95.03,1.34.15ZM1422.96,1222.75c1.35-1.7,2.99-3.11,4.27-4.27l-4.27,4.27ZM1428.96,1214.75c-.08.1-.1.26-.09.43-.01-.17.01-.33.09-.43,4.25-5.48,8.39-11.77,13.99-15.99-4.27,5.72-7.21,12.47-13.99,15.99ZM1454.95,1184.77c-3.08,3.66-5.42,7.82-10,10,2.82-3.94,5.62-7.64,10-10,.08-.1.1-.25.09-.42.01.18-.01.32-.09.42ZM1460.94,1448.64l3.92-3.92c-.36.45-1.5,2.72-3.92,3.92ZM1465.33,1444.54c.44-.06,1.03.03,1.61.11-.59-.08-1.17-.16-1.61-.11ZM1468.94,1444.64l3.92-3.92c-.36.45-1.5,2.72-3.92,3.92ZM1476.94,1440.64l3.92-3.92c-.36.45-1.5,2.72-3.92,3.92ZM1484.93,1436.65l3.92-3.92c-.36.45-1.5,2.72-3.92,3.92ZM1492.93,1432.65l3.92-3.92c-.36.45-1.5,2.72-3.92,3.92ZM1498.93,1428.65l5.61-3.74c-.89.66-2.8,2.35-5.61,3.74ZM1506.92,1424.65l5.61-3.74c-.89.66-2.79,2.35-5.61,3.74ZM1514.92,1420.65c-.4.2-1.02-.05-1.54-.07.51.02,1.14.27,1.54.07l5.6-3.73c-.91.67-2.79,2.34-5.6,3.73ZM1522.91,1416.66l1.48-1.48c-.38.49-.85,1.17-1.48,1.48ZM1525.61,1414.61c.36.05.75.16,1.07.12-.32.04-.71-.06-1.07-.12ZM1526.91,1414.66l4.24-2.82c-1.18.88-2.57,1.99-4.24,2.82ZM1534.91,1410.66l4.24-2.83c-1.18.88-2.57,1.99-4.24,2.83ZM1542.9,1406.66l4.25-2.83c-1.18.88-2.58,2-4.25,2.83ZM1544.16,1278.28c1.78-1.16,3.66-2.19,5.43-2.94-1.77.75-3.65,1.77-5.43,2.94ZM1550.9,1402.66l5.61-3.74c-.89.66-2.8,2.34-5.61,3.74ZM1558.9,1398.66l5.63-3.76c-.88.65-2.79,2.35-5.63,3.76ZM1568.89,1394.67l3.92-3.92c-.36.45-1.5,2.72-3.92,3.92ZM1569.22,1300.17c1.73.39,3.41,1.12,4.85,2.38-1.44-1.25-3.12-1.98-4.85-2.38ZM1574.89,1390.67l5.55-3.7c-.94.69-2.8,2.32-5.55,3.7ZM1582.89,1386.67l5.5-3.67c-.97.72-2.8,2.3-5.5,3.67ZM1590.88,1382.67c2.55-3.78,6.23-4.38,10-6-2.52,4.01-6.65,4.28-10,6ZM1600.88,1347.68c.82.84,2.65,2.21,2,2.99-3.23,3.85-6.71-6.1-2-2.99ZM1602.88,1376.67l1.77-1.77c-.34.44-.88,1.38-1.77,1.77ZM1606.87,1374.68c1.9-5.04,6.51-4.45,10-6-2.66,3.02-6.45,4.44-10,6ZM1617.34,1368.61c.34.02.72.12,1.06.14-.34-.02-.72-.12-1.06-.14ZM1618.87,1368.68l3.92-3.92c-.36.45-1.46,2.82-3.92,3.92ZM1619.49,1340.33c2.54-.9,5.05-1.37,6.67,0-1.62-1.37-4.13-.9-6.67,0ZM1626.87,1364.68l3.92-3.92c-.36.45-1.45,2.77-3.92,3.92ZM1634.86,1360.68l4.4-2.93c-1.19.9-2.63,2.08-4.4,2.93ZM1642.86,1356.68l3.92-3.92c-.36.46-1.5,2.75-3.92,3.92ZM1649.43,1352.76c.38.04.73.07,1.03.03-.3.04-.65.01-1.03-.03ZM1650.86,1352.69l4.37-2.92c-1.18.9-2.62,2.07-4.37,2.92ZM1656.85,1348.69c.2-.1.46-.09.73-.05-.27-.04-.53-.05-.73.05ZM1658.85,1348.69l4-4c-.31.16-1.35,2.71-4,4ZM1666.85,1344.69l4.15-2.76c-1.17.87-2.52,1.92-4.15,2.76ZM1728.32,1297.35c1.74-21.79,7.83-41.88,17.39-59.81-9.56,17.93-15.65,38.01-17.39,59.81Z"/>
  <path class="cls-24" d="M1428.96,1214.75c4.25-5.48,8.39-11.77,13.99-15.99-4.27,5.72-7.21,12.47-13.99,15.99Z"/>
  <path class="cls-24" d="M1672.84,1340.69c-1.56.82-3.43,2.68-6,4l6-4Z"/>
  <path class="cls-24" d="M1656.85,1348.69c-1.41.69-3.35,2.72-6,4l6-4Z"/>
  <path class="cls-24" d="M1640.86,1356.68c-1.41.68-3.34,2.72-6,4l6-4Z"/>
  <path class="cls-24" d="M1616.87,1368.68c-2.66,3.02-6.45,4.44-10,6,1.9-5.04,6.51-4.45,10-6Z"/>
  <path class="cls-24" d="M1600.88,1376.68c-2.52,4.01-6.65,4.28-10,6,2.55-3.78,6.23-4.38,10-6Z"/>
  <path class="cls-24" d="M1582.89,1386.67l6-4c-.74.38-2.74,2.35-6,4Z"/>
  <path class="cls-24" d="M1574.89,1390.67l6-4c-.7.35-2.73,2.36-6,4Z"/>
  <path class="cls-24" d="M1558.9,1398.66l6-4c-.61.3-2.67,2.36-6,4Z"/>
  <path class="cls-24" d="M1550.9,1402.66l6-4c-.63.31-2.69,2.35-6,4Z"/>
  <path class="cls-24" d="M1548.9,1402.66c-1.45.72-3.4,2.7-6,4l6-4Z"/>
  <path class="cls-24" d="M1540.91,1406.66c-1.46.73-3.4,2.7-6,4l6-4Z"/>
  <path class="cls-24" d="M1532.91,1410.66c-1.46.73-3.41,2.7-6,4l6-4Z"/>
  <path class="cls-24" d="M1514.92,1420.65l6-4c-.65.32-2.69,2.35-6,4Z"/>
  <path class="cls-24" d="M1506.92,1424.65l6-4c-.63.31-2.69,2.36-6,4Z"/>
  <path class="cls-24" d="M1498.93,1428.65l6-4c-.63.31-2.69,2.36-6,4Z"/>
  <path class="cls-24" d="M1460.94,1448.64l4-4c-.25.13-1.37,2.69-4,4Z"/>
  <path class="cls-24" d="M1468.94,1444.64l4-4c-.25.13-1.37,2.69-4,4Z"/>
  <path class="cls-24" d="M1476.94,1440.65l4-4c-.25.13-1.37,2.69-4,4Z"/>
  <path class="cls-24" d="M1484.93,1436.65l4-4c-.25.13-1.37,2.69-4,4Z"/>
  <path class="cls-24" d="M1492.93,1432.65l4-4c-.25.13-1.37,2.69-4,4Z"/>
  <path class="cls-24" d="M1522.91,1416.66l2-2c-.48.24-1.05,1.53-2,2Z"/>
  <path class="cls-24" d="M1568.89,1394.67l4-4c-.25.13-1.37,2.7-4,4Z"/>
  <path class="cls-24" d="M1602.88,1376.68l2-2c-.31.13-.88,1.51-2,2Z"/>
  <path class="cls-24" d="M1618.87,1368.68l4-4c-.26.12-1.33,2.81-4,4Z"/>
  <path class="cls-24" d="M1626.87,1364.68l4-4c-.26.12-1.32,2.75-4,4Z"/>
  <path class="cls-24" d="M1642.86,1356.68l4-4c-.25.12-1.37,2.73-4,4Z"/>
  <path class="cls-24" d="M1658.85,1348.69l4-4c-.31.16-1.35,2.71-4,4Z"/>
  <path class="cls-24" d="M1382.98,1272.72c2.19-2.8,4.86-4.54,6-6l-6,6Z"/>
  <path class="cls-24" d="M1388.98,1264.73c1.53-1.95,3.31-3.11,4-4l-4,4Z"/>
  <path class="cls-24" d="M1422.96,1222.75c2.12-2.67,4.94-4.63,6-6l-6,6Z"/>
  <path class="cls-24" d="M1444.95,1194.76c2.82-3.94,5.62-7.64,10-10-3.08,3.66-5.42,7.82-10,10Z"/>
  <path class="cls-24" d="M1602.88,1350.66c-3.23,3.85-6.71-6.1-2-2.99.82.84,2.65,2.21,2,2.99Z"/>
</svg>